<?xml version="1.0" standalone="no"?><!DOCTYPE svg PUBLIC "-//W3C//DTD SVG 1.1//EN" "http://www.w3.org/Graphics/SVG/1.1/DTD/svg11.dtd"><svg t="1509369404985" class="icon" style="" viewBox="0 0 1024 1024" version="1.1" xmlns="http://www.w3.org/2000/svg" p-id="5081" xmlns:xlink="http://www.w3.org/1999/xlink" width="200" height="200"><defs><style type="text/css"></style></defs><path d="M731.918024 180.533726 293.285433 180.533726c-40.383364 0-73.105944 32.720216-73.105944 73.102948l0 24.367991 584.843455 0 0-24.367991C805.023968 213.253942 772.302411 180.533726 731.918024 180.533726M604.221575 131.798768l10.756412 76.909647L410.22547 208.708416l10.755389-76.909647L604.221575 131.798768M610.076149 83.063811l-194.947818 0c-20.108791 0-38.813548 16.276708-41.621615 36.217876l-14.254216 101.968369c-2.78453 19.916609 11.399075 36.19434 31.507865 36.19434l243.684773 0c20.107767 0 34.292396-16.276708 31.484328-36.217876l-14.255239-101.968369C648.887651 99.340519 630.183917 83.063811 610.076149 83.063811M744.102007 326.738599 281.100427 326.738599c-26.795347 0-46.761893 21.845541-44.334511 48.544623L276.699007 814.278511c2.402821 26.700105 26.344051 48.544623 53.139398 48.544623l365.527671 0c26.795347 0 50.735553-21.845541 53.139398-48.544623l39.932067-438.995289C790.8639 348.58414 770.897354 326.738599 744.102007 326.738599M415.128331 765.353219l-73.105944 0-24.368989-341.144704 97.473909 0L415.127308 765.353219zM561.339195 765.353219l-97.473909 0L463.865286 424.208515l97.473909 0L561.339195 765.353219zM683.18107 765.353219l-73.105944 0L610.075126 424.208515l97.473909 0L683.18107 765.353219z" fill="#5a8bff" p-id="5082"></path></svg>